<?xml version="1.0" encoding="utf-8"?>
<!-- Generator: Adobe Illustrator 21.0.0, SVG Export Plug-In . SVG Version: 6.00 Build 0)  -->
<svg version="1.1" id="Layer_1" xmlns="http://www.w3.org/2000/svg" xmlns:xlink="http://www.w3.org/1999/xlink" x="0px" y="0px"
	 viewBox="0 0 99.3 31.9" style="enable-background:new 0 0 99.3 31.9;" xml:space="preserve">
<g>
	<path d="M42.6,14.6c-1.2,0-1.5,0.8-1.8,1.6h3.3C44,15.5,43.6,14.6,42.6,14.6z"/>
	<path d="M72.7,14.6c-1.2,0-1.5,0.8-1.8,1.6h3.3C74,15.5,73.6,14.6,72.7,14.6z"/>
	<path d="M15.9,8.3c-4.1,0-7.5,3.7-7.5,8.2c0,4.5,3.4,8.2,7.5,8.2c4.1,0,7.5-3.7,7.5-8.2C23.4,11.9,20.1,8.3,15.9,8.3z M21.2,16.5
		c0,0.1-0.1,0.2-0.2,0.2h-3.1c-0.2,0-0.2-0.3-0.2-0.3s0-0.9-0.2-1.5c-0.2-0.6-0.6-1.4-1.4-1.4c-0.8,0-1.1,0.4-1.3,0.9
		c-0.1,0.2-0.1,0.5-0.2,0.8c0,0.4-0.1,0.9-0.1,1.4c0.1,1.7,1,2.2,1.8,2.2h0.8c0.7,0,1.4-0.2,1.8-1.3c0-0.1,0.1-0.1,0.1-0.1h2
		c0.1,0,0.1,0.2,0.1,0.3c-0.2,1.1-0.9,4.3-4.1,4.3h-0.9c-1.6,0-5.5-0.3-5.5-5.7c0-5.4,4-5.7,4.5-5.7h1.6c1.8,0,4.5,1.9,4.5,5.4V16.5
		z"/>
	<path d="M95.5,5.9C91.6,2.7,79.4,0,49.6,0C19.9,0,7.7,2.7,3.8,5.9c-3.9,3.2-3.8,10-3.8,10s-0.1,6.8,3.8,10
		c3.9,3.2,16.1,5.9,45.8,5.9c29.7,0,42-2.7,45.8-5.9c3.9-3.2,3.8-10,3.8-10S99.4,9.2,95.5,5.9z M15.9,25.8c-4.8,0-8.7-4.2-8.7-9.3
		c0-5.2,3.9-9.3,8.7-9.3c4.8,0,8.7,4.2,8.7,9.3C24.6,21.6,20.7,25.8,15.9,25.8z M32.6,25.2h-2.7c-0.4,0-2-0.7-2-3.9v-6h-1.8
		c-0.1,0-0.2-0.1-0.2-0.3v-3.1c0-0.3,0.1-0.5,0.2-0.5h0.6c1.8,0,2.6-1.3,3-5.2c0-0.3,0.1-0.5,0.2-0.5H32c0.1,0,0.2,0.1,0.2,0.4v5.3
		h1.9c0.1,0,0.3,0.1,0.3,0.5v2.9c0,0.2-0.1,0.4-0.2,0.4h-2v3.7c0,0.8,0.3,2.2,0.9,2.2c0.6,0,1-1.1,1.2-2.9c0-0.3,0.1-0.6,0.2-0.6
		h1.2c0.1,0,0.1,0.1,0.1,0.4C35.7,19.4,35.2,25.2,32.6,25.2z M48.9,18.3c0,0.1-0.1,0.2-0.2,0.2h-8c0.1,2.1,1.2,2.7,2.2,2.7h1
		c0.9,0,1.7-0.3,2.2-1.5c0-0.1,0.1-0.1,0.1-0.1h2.5c0.1,0,0.1,0.2,0.1,0.3c-0.3,1.4-1.1,5.3-5.1,5.3h-1.1c-2,0-6.7-0.4-6.7-7.1
		c0-6.7,5-7,5.5-7h2c2.3,0,5.5,2.4,5.5,6.7V18.3z M66.2,24.7c0,0.3-0.1,0.5-0.3,0.5h-9.2c-0.1,0-0.2-0.3-0.2-0.6v-2.9
		c0-0.3,0.1-0.5,0.2-0.5h0.6l-0.8-1.8l-1.1,0.8v0.9h0.5c0.1,0,0.1,0.2,0.1,0.4v3c0,0.2-0.1,0.6-0.3,0.6h-6.4c-0.1,0-0.3-0.2-0.3-0.6
		v-2.8c0-0.3,0.1-0.7,0.3-0.7h1.7V9.6h-1.8c-0.1,0-0.2-0.1-0.2-0.3V6c0-0.3,0.1-0.5,0.2-0.5h6c0.1,0,0.2,0.1,0.2,0.3V18l3.1-2.7
		v-0.1h-2.2c-0.1,0-0.2-0.3-0.2-0.7v-2.9c0-0.2,0.1-0.5,0.3-0.5h8.5c0.1,0,0.3,0.1,0.3,0.5v3.1c0,0.3-0.1,0.4-0.2,0.4h-2.1l-1.6,1.5
		l2.7,4.3h1.9c0.2,0,0.3,0.1,0.3,0.7V24.7z M79,18.3c0,0.1-0.1,0.2-0.2,0.2h-8c0.1,2.1,1.2,2.7,2.2,2.7h1c0.9,0,1.7-0.3,2.2-1.5
		c0-0.1,0.1-0.1,0.1-0.1h2.5c0.1,0,0.1,0.2,0.1,0.3c-0.3,1.4-1.1,5.3-5.1,5.3h-1.1c-2,0-6.7-0.4-6.7-7.1c0-6.7,5-7,5.5-7h2
		c2.3,0,5.5,2.4,5.5,6.7V18.3z M85.9,25.2h-2.7c-0.4,0-2-0.7-2-3.9v-6h-1.8c-0.1,0-0.2-0.1-0.2-0.3v-3.1c0-0.3,0.1-0.5,0.2-0.5H80
		c1.8,0,2.6-1.3,3-5.2c0-0.3,0.1-0.5,0.2-0.5h2.2c0.1,0,0.2,0.1,0.2,0.4v5.3h1.9c0.1,0,0.3,0.1,0.3,0.5v2.9c0,0.2-0.1,0.4-0.2,0.4
		h-2v3.7c0,0.8,0.3,2.2,0.9,2.2c0.6,0,1-1.1,1.2-2.9c0-0.3,0.1-0.6,0.2-0.6h1.2c0.1,0,0.1,0.1,0.1,0.4C89,19.4,88.5,25.2,85.9,25.2z
		"/>
</g>
</svg>
